<?xml version="1.0" ?><svg style="enable-background:new 0 0 64 64;" version="1.1" viewBox="0 0 64 64" xml:space="preserve" xmlns="http://www.w3.org/2000/svg" xmlns:xlink="http://www.w3.org/1999/xlink"><style type="text/css">
	.st0{fill:#75C6A8;}
	.st1{fill:#57B5B5;}
	.st2{fill:#263047;}
	.st3{fill:#DB7158;}
	.st4{fill:none;stroke:#263047;stroke-width:0.5;stroke-linecap:round;stroke-miterlimit:10;}
	.st5{fill:none;stroke:#EA8B78;stroke-width:2;stroke-linecap:round;stroke-miterlimit:10;}
	.st6{fill:#E89715;}
	.st7{fill:none;stroke:#263047;stroke-linecap:round;stroke-miterlimit:10;}
	.st8{fill:none;stroke:#263047;stroke-width:0.5;stroke-linecap:round;stroke-linejoin:round;stroke-miterlimit:10;}
	.st9{fill:#456BA8;}
	.st10{fill:#9EC6B8;}
	.st11{fill:#C14F46;}
	.st12{fill:#BFD8D0;}
	.st13{fill:#E57417;}
	.st14{fill:none;stroke:#9EC6B8;stroke-width:0.75;stroke-linecap:round;stroke-linejoin:round;stroke-miterlimit:10;}
	.st15{fill:#FFFFFF;}
	.st16{fill:#D8EAE3;}
	.st17{fill:none;stroke:#DB7158;stroke-linecap:round;stroke-miterlimit:10;}
	.st18{fill:none;stroke:#BFD8D0;stroke-width:0.5;stroke-linecap:round;stroke-miterlimit:10;}
	.st19{fill:none;stroke:#263047;stroke-width:0.5;stroke-linecap:round;stroke-miterlimit:10;stroke-dasharray:1.0458,1.0458;}
	.st20{fill:#75C6A8;stroke:#75C6A8;stroke-width:0.25;stroke-linejoin:round;stroke-miterlimit:10;}
	.st21{fill:#EF8873;}
	.st22{fill:none;stroke:#263047;stroke-width:0.5;stroke-miterlimit:10;}
	.st23{fill:none;stroke:#263047;stroke-width:0.5;stroke-linecap:round;stroke-miterlimit:10;stroke-dasharray:1.8125,1.8125;}
	.st24{fill:none;stroke:#263047;stroke-linecap:round;stroke-miterlimit:10;stroke-dasharray:1.912,1.912;}
	.st25{fill:none;}
	.st26{fill:none;stroke:#EA8B78;stroke-linecap:round;stroke-miterlimit:10;}
	.st27{fill:none;stroke:#263047;stroke-width:3;stroke-miterlimit:10;}
	.st28{fill:none;stroke:#BFD8D0;stroke-miterlimit:10;}
	.st29{fill:none;stroke:#BFD8D0;stroke-width:0.5;stroke-miterlimit:10;}
	.st30{fill:none;stroke:#9EC6B8;stroke-width:0.5;stroke-miterlimit:10;}
	.st31{fill:none;stroke:#75C6A8;stroke-width:0.5;stroke-miterlimit:10;}
	.st32{fill:none;stroke:#F9F9F9;stroke-width:0.5;stroke-linecap:round;stroke-linejoin:round;stroke-miterlimit:10;}
	.st33{fill:none;stroke:#9EC6B8;stroke-width:0.5;stroke-linecap:round;stroke-linejoin:round;stroke-miterlimit:10;}
	.st34{fill:#EA8B78;}
	.st35{fill:none;stroke:#EA8B78;stroke-width:0.75;stroke-linecap:round;stroke-miterlimit:10;}
</style><g id="Layer_1"/><g id="artworks"><path class="st3" d="M40.9,14.5c0-2.6-2.4-4.8-5-4.6c-1.8,0.1-3.4,1.3-4,3c-0.6-1.6-2.2-2.8-4-3c-2.6-0.2-4.9,2-5,4.6   c0,1.6,0.8,3,2,3.9c1.4,1,2.4,2.5,2.4,4.2v0.2h9.1v-0.2c0-1.7,1-3.3,2.4-4.2C40.1,17.6,40.9,16.1,40.9,14.5z"/><circle class="st3" cx="31.9" cy="11.1" r="4.5"/><path class="st12" d="M51.2,51.2L39.3,39.3c-0.7-0.7-1.1-1.7-1.1-2.7V26H25.8v10.6c0,1-0.4,2-1.1,2.7L12.8,51.2   c-3.6,3.6-1.1,9.8,4,9.8h30.4C52.3,61,54.8,54.8,51.2,51.2z"/><rect class="st10" height="4.7" width="12.4" x="25.8" y="26"/><g><path class="st0" d="M51.2,51.2l-1-1c-1-1-2.5-1.3-3.8-0.8c-0.9,0.3-1.8,0.6-2.9,0.7c-1.3,0.2-2.5,0.1-3.6,0    c-0.4-0.1-0.9,0-1.3,0.2c-1,0.4-2.2,0.8-3.5,1c-1.3,0.2-2.5,0.1-3.6,0c-0.4-0.1-0.9,0-1.3,0.2c-1,0.4-2.2,0.8-3.5,1    c-1.3,0.2-2.5,0.1-3.6,0c-0.4-0.1-0.9,0-1.3,0.2c-1,0.4-2.2,0.8-3.5,1c-1.5,0.2-2.9,0.1-4.1-0.1c-1.8-0.4-3.5,1.1-3.2,2.9    c0.5,2.5,2.6,4.7,5.6,4.7h30.4C52.3,61,54.8,54.8,51.2,51.2z"/><path class="st4" d="M47.2,61c5.1,0,7.6-6.2,4-9.8"/><line class="st4" x1="16.8" x2="47.2" y1="61" y2="61"/></g><path class="st12" d="M38.8,28H25.2c-1.5,0-2.7-1.2-2.7-2.7v0c0-1.5,1.2-2.7,2.7-2.7h13.7c1.5,0,2.7,1.2,2.7,2.7v0   C41.5,26.8,40.3,28,38.8,28z"/><circle class="st0" cx="31.2" cy="44.9" r="1.4"/><circle class="st0" cx="35.8" cy="47.5" r="0.2"/><circle class="st0" cx="27.5" cy="48.2" r="0.5"/><circle class="st0" cx="36.1" cy="41.7" r="1.5"/><circle class="st0" cx="42.6" cy="48" r="0.2"/><circle class="st0" cx="23.1" cy="46.4" r="0.9"/><circle class="st1" cx="32.2" cy="56" r="1.4"/><circle class="st1" cx="26.2" cy="55" r="0.4"/><circle class="st1" cx="37.7" cy="53.3" r="0.4"/><circle class="st1" cx="41.4" cy="51.3" r="2.1"/><circle class="st1" cx="46.8" cy="56" r="0.6"/><circle class="st3" cx="17.6" cy="18.2" r="1.8"/><circle class="st3" cx="21.6" cy="19.6" r="0.3"/><circle class="st3" cx="21.6" cy="16.1" r="0.2"/><circle class="st3" cx="43.5" cy="19.1" r="0.4"/><circle class="st3" cx="40.7" cy="20.2" r="0.2"/><circle class="st3" cx="46.1" cy="14.2" r="1.5"/><circle class="st3" cx="42.2" cy="10.2" r="0.9"/><circle class="st3" cx="18" cy="11.1" r="0.8"/><circle class="st3" cx="23" cy="9.4" r="0.5"/><g><g><g><g><circle class="st2" cx="11.1" cy="33.4" r="4.9"/><g><path class="st2" d="M12.6,25.6c0-0.5-0.7-0.9-1.5-0.9c-0.8,0-1.5,0.4-1.5,0.9c0,0.1,0,0.2,0.1,0.3c0.4,0.6,0.6,1.4,0.6,2.2        V30h1.6v-1.9c0-0.8,0.1-1.6,0.6-2.2C12.6,25.8,12.6,25.7,12.6,25.6z"/><path class="st2" d="M9.6,41.3c0,0.5,0.7,0.9,1.5,0.9c0.8,0,1.5-0.4,1.5-0.9c0-0.1,0-0.2-0.1-0.3c-0.4-0.6-0.6-1.4-0.6-2.2        v-1.9h-1.6v1.9c0,0.8-0.1,1.6-0.6,2.2C9.7,41.1,9.6,41.2,9.6,41.3z"/></g><g><path class="st2" d="M8.3,26.5c-0.2-0.3-0.8-0.3-1.3,0c-0.5,0.3-0.8,0.8-0.6,1.1c0,0.1,0.1,0.1,0.2,0.2        c0.5,0.2,0.9,0.7,1.2,1.2l0.7,1.2l1-0.6l-0.7-1.2c-0.3-0.5-0.5-1-0.4-1.6C8.4,26.7,8.4,26.6,8.3,26.5z"/><path class="st2" d="M13.9,40.4c0.2,0.3,0.8,0.3,1.3,0c0.5-0.3,0.8-0.8,0.6-1.1c0-0.1-0.1-0.1-0.2-0.2        c-0.5-0.2-0.9-0.7-1.2-1.2l-0.7-1.2l-1,0.6l0.7,1.2c0.3,0.5,0.5,1,0.4,1.6C13.8,40.2,13.8,40.3,13.9,40.4z"/></g><g><path class="st2" d="M3.7,32.4c-0.4,0-0.7,0.5-0.7,1.1c0,0.6,0.3,1.1,0.7,1.1c0.1,0,0.2,0,0.2-0.1C4.4,34.1,5,34,5.6,34h1.4        v-1.2H5.6c-0.6,0-1.1-0.1-1.6-0.4C3.9,32.4,3.8,32.4,3.7,32.4z"/><path class="st2" d="M18.5,34.5c0.4,0,0.7-0.5,0.7-1.1c0-0.6-0.3-1.1-0.7-1.1c-0.1,0-0.2,0-0.2,0.1c-0.5,0.3-1,0.4-1.6,0.4        h-1.4V34h1.4c0.6,0,1.1,0.1,1.6,0.4C18.3,34.5,18.4,34.5,18.5,34.5z"/></g><g><path class="st2" d="M6.5,39.3c-0.2,0.3,0.1,0.8,0.6,1.1c0.5,0.3,1.1,0.3,1.3,0c0-0.1,0.1-0.2,0.1-0.3c0-0.6,0.2-1.1,0.4-1.6        l0.7-1.2l-1-0.6L7.8,38c-0.3,0.5-0.7,0.9-1.2,1.2C6.6,39.2,6.5,39.2,6.5,39.3z"/><path class="st2" d="M15.7,27.6c0.2-0.3-0.1-0.8-0.6-1.1c-0.5-0.3-1.1-0.3-1.3,0c0,0.1-0.1,0.2-0.1,0.3c0,0.6-0.2,1.1-0.4,1.6        l-0.7,1.2l1,0.6l0.7-1.2c0.3-0.5,0.7-0.9,1.2-1.2C15.6,27.7,15.7,27.6,15.7,27.6z"/></g><g><path class="st2" d="M5,28.2c-0.4-0.3-1.1,0.1-1.6,0.8c-0.4,0.7-0.4,1.5,0.1,1.8c0.1,0.1,0.2,0.1,0.4,0.1        c0.8-0.1,1.5,0.2,2.2,0.6l1.6,0.9L8.6,31l-1.6-0.9c-0.7-0.4-1.3-0.9-1.6-1.6C5.2,28.4,5.1,28.3,5,28.2z"/><path class="st2" d="M17.2,38.7c0.4,0.3,1.1-0.1,1.6-0.8c0.4-0.7,0.4-1.5-0.1-1.8C18.6,36,18.5,36,18.3,36        c-0.8,0.1-1.5-0.2-2.2-0.6l-1.6-0.9l-0.8,1.4l1.6,0.9c0.7,0.4,1.3,0.9,1.6,1.6C17,38.5,17.1,38.6,17.2,38.7z"/></g><g><path class="st2" d="M3.5,36.1c-0.4,0.3-0.5,1-0.1,1.8c0.4,0.7,1.1,1.1,1.6,0.8c0.1-0.1,0.2-0.2,0.2-0.3        c0.3-0.7,1-1.2,1.6-1.6l1.6-0.9l-0.8-1.4l-1.6,0.9c-0.7,0.4-1.4,0.7-2.2,0.6C3.8,36,3.6,36,3.5,36.1z"/><path class="st2" d="M18.7,30.8c0.4-0.3,0.5-1,0.1-1.8c-0.4-0.7-1.1-1.1-1.6-0.8c-0.1,0.1-0.2,0.2-0.2,0.3        c-0.3,0.7-1,1.2-1.6,1.6L13.7,31l0.8,1.4l1.6-0.9c0.7-0.4,1.4-0.7,2.2-0.6C18.5,30.9,18.6,30.9,18.7,30.8z"/></g><g><path class="st9" d="M10.3,31.6l-0.5-1.3c0.4-0.2,0.9-0.3,1.3-0.3v1.4C10.8,31.4,10.6,31.5,10.3,31.6z"/></g><g><path class="st9" d="M9.1,33.4H7.7c0-0.9,0.4-1.8,1-2.5l1,1C9.3,32.4,9.1,32.9,9.1,33.4z"/></g></g></g><g><path class="st15" d="M9.1,35.6l-0.2-0.2c-0.3-0.3-0.3-0.7,0-1l3.1-3.1c0.3-0.3,0.7-0.3,1,0l0.2,0.2c0.3,0.3,0.3,0.7,0,1      l-3.1,3.1C9.9,35.9,9.4,35.9,9.1,35.6z"/><path class="st15" d="M8.9,31.5l0.2-0.2c0.3-0.3,0.7-0.3,1,0l3.1,3.1c0.3,0.3,0.3,0.7,0,1l-0.2,0.2c-0.3,0.3-0.7,0.3-1,0      l-3.1-3.1C8.6,32.2,8.6,31.8,8.9,31.5z"/></g></g><g><g><g><circle class="st2" cx="52.9" cy="33.4" r="4.9"/><g><path class="st2" d="M54.4,25.6c0-0.5-0.7-0.9-1.5-0.9c-0.8,0-1.5,0.4-1.5,0.9c0,0.1,0,0.2,0.1,0.3c0.4,0.6,0.6,1.4,0.6,2.2        V30h1.6v-1.9c0-0.8,0.1-1.6,0.6-2.2C54.3,25.8,54.4,25.7,54.4,25.6z"/><path class="st2" d="M51.4,41.3c0,0.5,0.7,0.9,1.5,0.9c0.8,0,1.5-0.4,1.5-0.9c0-0.1,0-0.2-0.1-0.3c-0.4-0.6-0.6-1.4-0.6-2.2        v-1.9h-1.6v1.9c0,0.8-0.1,1.6-0.6,2.2C51.4,41.1,51.4,41.2,51.4,41.3z"/></g><g><path class="st2" d="M50.1,26.5c-0.2-0.3-0.8-0.3-1.3,0c-0.5,0.3-0.8,0.8-0.6,1.1c0,0.1,0.1,0.1,0.2,0.2        c0.5,0.2,0.9,0.7,1.2,1.2l0.7,1.2l1-0.6l-0.7-1.2c-0.3-0.5-0.5-1-0.4-1.6C50.2,26.7,50.2,26.6,50.1,26.5z"/><path class="st2" d="M55.7,40.4c0.2,0.3,0.8,0.3,1.3,0c0.5-0.3,0.8-0.8,0.6-1.1c0-0.1-0.1-0.1-0.2-0.2        c-0.5-0.2-0.9-0.7-1.2-1.2l-0.7-1.2l-1,0.6l0.7,1.2c0.3,0.5,0.5,1,0.4,1.6C55.6,40.2,55.6,40.3,55.7,40.4z"/></g><g><path class="st2" d="M45.5,32.4c-0.4,0-0.7,0.5-0.7,1.1c0,0.6,0.3,1.1,0.7,1.1c0.1,0,0.2,0,0.2-0.1c0.5-0.3,1-0.4,1.6-0.4h1.4        v-1.2h-1.4c-0.6,0-1.1-0.1-1.6-0.4C45.7,32.4,45.6,32.4,45.5,32.4z"/><path class="st2" d="M60.3,34.5c0.4,0,0.7-0.5,0.7-1.1c0-0.6-0.3-1.1-0.7-1.1c-0.1,0-0.2,0-0.2,0.1c-0.5,0.3-1,0.4-1.6,0.4        h-1.4V34h1.4c0.6,0,1.1,0.1,1.6,0.4C60.1,34.5,60.2,34.5,60.3,34.5z"/></g><g><path class="st2" d="M48.3,39.3c-0.2,0.3,0.1,0.8,0.6,1.1c0.5,0.3,1.1,0.3,1.3,0c0-0.1,0.1-0.2,0.1-0.3c0-0.6,0.2-1.1,0.4-1.6        l0.7-1.2l-1-0.6L49.6,38c-0.3,0.5-0.7,0.9-1.2,1.2C48.4,39.2,48.3,39.2,48.3,39.3z"/><path class="st2" d="M57.5,27.6c0.2-0.3-0.1-0.8-0.6-1.1c-0.5-0.3-1.1-0.3-1.3,0c0,0.1-0.1,0.2-0.1,0.3c0,0.6-0.2,1.1-0.4,1.6        l-0.7,1.2l1,0.6l0.7-1.2c0.3-0.5,0.7-0.9,1.2-1.2C57.4,27.7,57.5,27.6,57.5,27.6z"/></g><g><path class="st2" d="M46.8,28.2c-0.4-0.3-1.1,0.1-1.6,0.8c-0.4,0.7-0.4,1.5,0.1,1.8c0.1,0.1,0.2,0.1,0.4,0.1        c0.8-0.1,1.5,0.2,2.2,0.6l1.6,0.9l0.8-1.4l-1.6-0.9c-0.7-0.4-1.3-0.9-1.6-1.6C47,28.4,46.9,28.3,46.8,28.2z"/><path class="st2" d="M59,38.7c0.4,0.3,1.1-0.1,1.6-0.8c0.4-0.7,0.4-1.5-0.1-1.8C60.4,36,60.2,36,60.1,36        c-0.8,0.1-1.5-0.2-2.2-0.6l-1.6-0.9l-0.8,1.4l1.6,0.9c0.7,0.4,1.3,0.9,1.6,1.6C58.8,38.5,58.9,38.6,59,38.7z"/></g><g><path class="st2" d="M45.3,36.1c-0.4,0.3-0.5,1-0.1,1.8c0.4,0.7,1.1,1.1,1.6,0.8c0.1-0.1,0.2-0.2,0.2-0.3        c0.3-0.7,1-1.2,1.6-1.6l1.6-0.9l-0.8-1.4l-1.6,0.9c-0.7,0.4-1.4,0.7-2.2,0.6C45.5,36,45.4,36,45.3,36.1z"/><path class="st2" d="M60.5,30.8c0.4-0.3,0.5-1,0.1-1.8c-0.4-0.7-1.1-1.1-1.6-0.8c-0.1,0.1-0.2,0.2-0.2,0.3        c-0.3,0.7-1,1.2-1.6,1.6L55.4,31l0.8,1.4l1.6-0.9c0.7-0.4,1.4-0.7,2.2-0.6C60.2,30.9,60.4,30.9,60.5,30.8z"/></g><g><path class="st9" d="M52.1,31.6l-0.5-1.3c0.4-0.2,0.9-0.3,1.3-0.3v1.4C52.6,31.4,52.3,31.5,52.1,31.6z"/></g><g><path class="st9" d="M50.9,33.4h-1.4c0-0.9,0.4-1.8,1-2.5l1,1C51.1,32.4,50.9,32.9,50.9,33.4z"/></g></g></g><g><path class="st15" d="M50.9,35.6l-0.2-0.2c-0.3-0.3-0.3-0.7,0-1l3.1-3.1c0.3-0.3,0.7-0.3,1,0l0.2,0.2c0.3,0.3,0.3,0.7,0,1      l-3.1,3.1C51.7,35.9,51.2,35.9,50.9,35.6z"/><path class="st15" d="M50.7,31.5l0.2-0.2c0.3-0.3,0.7-0.3,1,0l3.1,3.1c0.3,0.3,0.3,0.7,0,1l-0.2,0.2c-0.3,0.3-0.7,0.3-1,0      l-3.1-3.1C50.4,32.2,50.4,31.8,50.7,31.5z"/></g></g></g></g></svg>