<?xml version="1.0" encoding="utf-8"?>
<!-- Generator: Adobe Illustrator 19.2.0, SVG Export Plug-In . SVG Version: 6.00 Build 0)  -->
<svg version="1.1" id="chemestrystructure" xmlns="http://www.w3.org/2000/svg" xmlns:xlink="http://www.w3.org/1999/xlink" x="0px"
	 y="0px" viewBox="0 0 215.9216 240" enable-background="new 0 0 215.9216 240" xml:space="preserve">
<g>
	<path fill="none" d="M145.9608,8c-5.5136,0-10,4.4864-10,10s4.4864,10,10,10c5.5136,0,10-4.4864,10-10S151.4744,8,145.9608,8z"/>
	<path fill="none" d="M163.3864,204c0.342,0.5928,0.4612,1.2324,0.4808,1.8716c1.6924,1.314,3.79,2.1284,6.0936,2.1284
		c5.5136,0,10-4.4864,10-10s-4.4864-10-10-10c-5.5136,0-10,4.4864-10,10c0,1.476,0.3412,2.8668,0.9176,4.1288
		C161.8972,202.3828,162.8192,203.0204,163.3864,204z"/>
	<path fill="none" d="M8,56.3084v55.3832l47.9608,27.6892l47.9608-27.6892V56.3084L55.9608,28.6192L8,56.3084z M58.3728,43.8224
		l31.176,18c1.914,1.1052,2.5684,3.5508,1.4648,5.4648c-1.1076,1.91-3.5528,2.5664-5.4648,1.4648l-29.1504-16.83L26.822,69.4416
		C26.1816,69.8204,25.4804,70,24.7868,70c-1.3672,0-2.6992-0.7012-3.4452-1.9608c-1.1268-1.9004-0.498-4.3556,1.4024-5.4808
		l31.59-18.7128C55.578,43.1092,57.1208,43.0976,58.3728,43.8224z"/>
	<path d="M22.744,62.5584c-1.9004,1.1252-2.5292,3.5804-1.4024,5.4808C22.0876,69.2988,23.4196,70,24.7868,70
		c0.6936,0,1.3948-0.1796,2.0352-0.5584L56.3984,51.922l29.1504,16.83c1.912,1.1016,4.3572,0.4452,5.4648-1.4648
		c1.1036-1.914,0.4492-4.3596-1.4648-5.4648l-31.176-18c-1.252-0.7248-2.7948-0.7132-4.0388,0.0232L22.744,62.5584z"/>
	<path d="M213.9216,50.5352l-50.3132-29.0488c0.2232-1.1296,0.3524-2.2924,0.3524-3.4864c0-9.9256-8.0744-18-18-18
		c-9.9256,0-18,8.0744-18,18s8.0744,18,18,18c5.8584,0,11.0208-2.8556,14.31-7.2016l47.6508,27.51v55.3832l-47.9608,27.6892
		L112,111.6916V54c0-1.382-0.7444-2.54-1.81-3.2588c-0.0932-0.0648-0.1688-0.1484-0.2684-0.206l-0.262-0.1516
		c-0.0464-0.0208-0.0824-0.0548-0.1296-0.0744l-51.5692-29.774c-1.2384-0.7148-2.7616-0.7148-4,0L2,50.5352
		C0.7616,51.25,0,52.5704,0,54v60c0,1.4296,0.7616,2.75,2,3.4648l50,28.8684V206c0,1.4296,0.7616,2.75,2,3.4648l51.9608,30
		c0.6192,0.3576,1.3084,0.5352,2,0.5352c0.6916,0,1.3808-0.1776,2-0.5352l48.3092-27.8916c3.154,2.7208,7.208,4.4268,11.6908,4.4268
		c9.9256,0,18-8.0744,18-18s-8.0744-18-18-18c-9.9256,0-18,8.0744-18,18c0,2.5304,0.536,4.934,1.4824,7.1212l-45.4824,26.2596
		L60,203.6916v-57.404l47.9608-27.6908l50,28.868c0.6192,0.3576,1.3084,0.5352,2,0.5352c0.6916,0,1.3808-0.1776,2-0.5352l51.9608-30
		c1.2384-0.7148,2-2.0352,2-3.4648V54C215.9216,52.5704,215.16,51.25,213.9216,50.5352z M145.9608,28c-5.5136,0-10-4.4864-10-10
		s4.4864-10,10-10c5.5136,0,10,4.4864,10,10S151.4744,28,145.9608,28z M169.9608,188c5.5136,0,10,4.4864,10,10s-4.4864,10-10,10
		c-2.3036,0-4.4012-0.8144-6.0936-2.1284c-0.0196-0.6392-0.1388-1.2788-0.4808-1.8716c-0.5672-0.9796-1.4892-1.6172-2.508-1.8712
		c-0.5764-1.262-0.9176-2.6528-0.9176-4.1288C159.9608,192.4864,164.4472,188,169.9608,188z M103.9216,111.6916l-47.9608,27.6892
		L8,111.6916V56.3084l47.9608-27.6892l47.9608,27.6892V111.6916z"/>
</g>
</svg>
