<?xml version="1.0" encoding="utf-8"?>
<!-- Generator: Adobe Illustrator 19.2.0, SVG Export Plug-In . SVG Version: 6.00 Build 0)  -->
<svg version="1.1" id="chemicalstructure" xmlns="http://www.w3.org/2000/svg" xmlns:xlink="http://www.w3.org/1999/xlink" x="0px"
	 y="0px" viewBox="0 0 239.9216 241.2344" enable-background="new 0 0 239.9216 241.2344" xml:space="preserve">
<g>
	<path fill="none" d="M8,148.9256v55.3832L55.9608,232l47.9608-27.6912v-55.3832l-47.9608-27.6912L8,148.9256z M67.9608,152.6171h8
		v48h-8v-20h-24v20h-8v-48h8v20h24V152.6171z"/>
	<path fill="none" d="M72,36.9256v55.3832L119.9608,120l47.9608-27.6912V36.9256L119.9608,9.2344L72,36.9256z M139.9608,40.6171v48
		h-8h-24h-8v-48h8h24H139.9608z"/>
	<rect x="107.9608" y="48.6171" fill="none" width="24" height="32"/>
	<path fill="none" d="M136,148.9256v55.3832L183.9608,232l47.9608-27.6912v-55.3832l-47.9608-27.6912L136,148.9256z
		 M195.9608,152.6171h8v48h-8v-20h-24v20h-8v-48h8v20h24V152.6171z"/>
	<path d="M175.9216,32.3088L119.9608,0L64,32.3088v64.6168l55.9608,32.3088l55.9608-32.3088V32.3088z M167.9216,92.3088
		L119.9608,120L72,92.3088V36.9256l47.9608-27.6912l47.9608,27.6912V92.3088z"/>
	<path d="M0,144.3088v64.6168l55.9608,32.3088l55.9608-32.3088v-64.6168L55.9608,112L0,144.3088z M103.9216,204.3088L55.9608,232
		L8,204.3088v-55.3832l47.9608-27.6912l47.9608,27.6912V204.3088z"/>
	<path d="M183.9608,112L128,144.3088v64.6168l55.9608,32.3088l55.9608-32.3088v-64.6168L183.9608,112z M231.9216,204.3088
		L183.9608,232L136,204.3088v-55.3832l47.9608-27.6912l47.9608,27.6912V204.3088z"/>
	<polygon points="43.9608,152.6171 35.9608,152.6171 35.9608,200.6171 43.9608,200.6171 43.9608,180.6171 67.9608,180.6171 
		67.9608,200.6171 75.9608,200.6171 75.9608,152.6171 67.9608,152.6171 67.9608,172.6171 43.9608,172.6171 	"/>
	<polygon points="171.9608,152.6171 163.9608,152.6171 163.9608,200.6171 171.9608,200.6171 171.9608,180.6171 195.9608,180.6171 
		195.9608,200.6171 203.9608,200.6171 203.9608,152.6171 195.9608,152.6171 195.9608,172.6171 171.9608,172.6171 	"/>
	<path d="M99.9608,40.6171v48h8h24h8v-48h-8h-24H99.9608z M131.9608,48.6171v32h-24v-32H131.9608z"/>
</g>
</svg>
